<?xml version="1.0" encoding="utf-8" standalone="no"?>
<!DOCTYPE svg PUBLIC "-//W3C//DTD SVG 1.1//EN"
  "http://www.w3.org/Graphics/SVG/1.1/DTD/svg11.dtd">
<svg xmlns:xlink="http://www.w3.org/1999/xlink" width="422.501768pt" height="230.94864pt" viewBox="0 0 422.501768 230.94864" xmlns="http://www.w3.org/2000/svg" version="1.1">
 <metadata>
  <rdf:RDF xmlns:dc="http://purl.org/dc/elements/1.1/" xmlns:cc="http://creativecommons.org/ns#" xmlns:rdf="http://www.w3.org/1999/02/22-rdf-syntax-ns#">
   <cc:Work>
    <dc:type rdf:resource="http://purl.org/dc/dcmitype/StillImage"/>
    <dc:date>2026-10-01T12:48:32.347042</dc:date>
    <dc:format>image/svg+xml</dc:format>
    <dc:creator>
     <cc:Agent>
      <dc:title>Matplotlib v3.11.2, https://matplotlib.org/</dc:title>
     </cc:Agent>
    </dc:creator>
   </cc:Work>
  </rdf:RDF>
 </metadata>
 <defs>
  <style type="text/css">*{stroke-linejoin: round; stroke-linecap: butt}</style>
 </defs>
 <g id="figure_1">
  <g id="patch_1">
   <path d="M 0 230.94864 
L 422.501768 230.94864 
L 422.501768 0 
L 0 0 
z
" style="fill: #ffffff"/>
  </g>
  <g id="axes_1">
   <g id="patch_2">
    <path d="M 22.502771 189.678321 
L 90.065946 189.678321 
Q 94.396919 189.678321 94.396919 185.347348 
L 94.396919 57.150553 
Q 94.396919 52.81958 90.065946 52.81958 
L 22.502771 52.81958 
Q 18.171798 52.81958 18.171798 57.150553 
L 18.171798 185.347348 
Q 18.171798 189.678321 22.502771 189.678321 
z
" clip-path="url(#p59d34b3cb0)" style="fill: #0b6e99; stroke: #06425c; stroke-width: 1.5; stroke-linejoin: miter"/>
   </g>
   <g id="patch_3">
    <path d="M 89.488483 85.734973 
L 98.150429 85.734973 
L 98.150429 78.805417 
L 89.488483 78.805417 
z
" clip-path="url(#p59d34b3cb0)" style="fill: #e9ecef; stroke: #333333; stroke-width: 0.8; stroke-linejoin: miter"/>
   </g>
   <g id="patch_4">
    <path d="M 89.488483 101.615207 
L 98.150429 101.615207 
L 98.150429 94.685651 
L 89.488483 94.685651 
z
" clip-path="url(#p59d34b3cb0)" style="fill: #e9ecef; stroke: #333333; stroke-width: 0.8; stroke-linejoin: miter"/>
   </g>
   <g id="patch_5">
    <path d="M 89.488483 117.495441 
L 98.150429 117.495441 
L 98.150429 110.565884 
L 89.488483 110.565884 
z
" clip-path="url(#p59d34b3cb0)" style="fill: #e9ecef; stroke: #333333; stroke-width: 0.8; stroke-linejoin: miter"/>
   </g>
   <g id="patch_6">
    <path d="M 89.488483 133.375674 
L 98.150429 133.375674 
L 98.150429 126.446118 
L 89.488483 126.446118 
z
" clip-path="url(#p59d34b3cb0)" style="fill: #e9ecef; stroke: #333333; stroke-width: 0.8; stroke-linejoin: miter"/>
   </g>
   <g id="patch_7">
    <path d="M 89.488483 149.255908 
L 98.150429 149.255908 
L 98.150429 142.326351 
L 89.488483 142.326351 
z
" clip-path="url(#p59d34b3cb0)" style="fill: #e9ecef; stroke: #333333; stroke-width: 0.8; stroke-linejoin: miter"/>
   </g>
   <g id="patch_8">
    <path d="M 89.488483 165.136141 
L 98.150429 165.136141 
L 98.150429 158.206585 
L 89.488483 158.206585 
z
" clip-path="url(#p59d34b3cb0)" style="fill: #e9ecef; stroke: #333333; stroke-width: 0.8; stroke-linejoin: miter"/>
   </g>
   <g id="patch_9">
    <path d="M 195.452951 175.241745 
L 322.49482 175.241745 
Q 325.959598 175.241745 325.959598 171.776966 
L 325.959598 56.284358 
Q 325.959598 52.81958 322.49482 52.81958 
L 195.452951 52.81958 
Q 191.988173 52.81958 191.988173 56.284358 
L 191.988173 171.776966 
Q 191.988173 175.241745 195.452951 175.241745 
z
" clip-path="url(#p59d34b3cb0)" style="fill: #e7f5ff; stroke: #333333; stroke-width: 1.2; stroke-linejoin: miter"/>
   </g>
   <g id="line2d_1">
    <path d="M 98.150429 98.150429 
L 111.143347 98.150429 
L 111.143347 158.784048 
L 192.565636 158.784048 
" clip-path="url(#p59d34b3cb0)" style="fill: none; stroke: #222222; stroke-width: 1.6; stroke-linecap: round"/>
   </g>
   <g id="line2d_2">
    <path d="M 98.150429 82.270195 
L 120.382756 82.270195 
L 120.382756 142.903814 
L 192.565636 142.903814 
" clip-path="url(#p59d34b3cb0)" style="fill: none; stroke: #d62728; stroke-width: 1.6; stroke-linecap: round"/>
   </g>
   <g id="line2d_3">
    <path d="M 98.150429 114.030662 
L 129.622164 114.030662 
L 129.622164 79.38288 
L 192.565636 79.38288 
" clip-path="url(#p59d34b3cb0)" style="fill: none; stroke: #1f77b4; stroke-width: 1.6; stroke-linecap: round"/>
   </g>
   <g id="line2d_4">
    <path d="M 98.150429 129.910896 
L 138.861573 129.910896 
L 138.861573 95.263114 
L 192.565636 95.263114 
" clip-path="url(#p59d34b3cb0)" style="fill: none; stroke: #2ca02c; stroke-width: 1.6; stroke-linecap: round"/>
   </g>
   <g id="line2d_5">
    <path d="M 98.150429 145.79113 
L 148.100982 145.79113 
L 148.100982 111.143347 
L 192.565636 111.143347 
" clip-path="url(#p59d34b3cb0)" style="fill: none; stroke: #9467bd; stroke-width: 1.6; stroke-linecap: round"/>
   </g>
   <g id="line2d_6">
    <path d="M 98.150429 161.671363 
L 157.34039 161.671363 
L 157.34039 127.023581 
L 192.565636 127.023581 
" clip-path="url(#p59d34b3cb0)" style="fill: none; stroke: #17becf; stroke-width: 1.6; stroke-linecap: round"/>
   </g>
   <g id="text_1">
    <!-- Stepper Motor Test – wiring -->
    <g transform="translate(10.087315 20.942869) scale(0.14 -0.14)">
     <defs>
      <path id="DejaVuSans-Bold-36" d="M 3834 4519 
L 3834 3531 
Q 3450 3703 3084 3790 
Q 2719 3878 2394 3878 
Q 1963 3878 1756 3759 
Q 1550 3641 1550 3391 
Q 1550 3203 1689 3098 
Q 1828 2994 2194 2919 
L 2706 2816 
Q 3484 2659 3812 2340 
Q 4141 2022 4141 1434 
Q 4141 663 3683 286 
Q 3225 -91 2284 -91 
Q 1841 -91 1394 -6 
Q 947 78 500 244 
L 500 1259 
Q 947 1022 1364 901 
Q 1781 781 2169 781 
Q 2563 781 2772 912 
Q 2981 1044 2981 1288 
Q 2981 1506 2839 1625 
Q 2697 1744 2272 1838 
L 1806 1941 
Q 1106 2091 782 2419 
Q 459 2747 459 3303 
Q 459 4000 909 4375 
Q 1359 4750 2203 4750 
Q 2588 4750 2994 4692 
Q 3400 4634 3834 4519 
z
" transform="scale(0.015625)"/>
      <path id="DejaVuSans-Bold-57" d="M 1759 4494 
L 1759 3500 
L 2913 3500 
L 2913 2700 
L 1759 2700 
L 1759 1216 
Q 1759 972 1856 886 
Q 1953 800 2241 800 
L 2816 800 
L 2816 0 
L 1856 0 
Q 1194 0 917 276 
Q 641 553 641 1216 
L 641 2700 
L 84 2700 
L 84 3500 
L 641 3500 
L 641 4494 
L 1759 4494 
z
" transform="scale(0.015625)"/>
      <path id="DejaVuSans-Bold-48" d="M 4031 1759 
L 4031 1441 
L 1416 1441 
Q 1456 1047 1700 850 
Q 1944 653 2381 653 
Q 2734 653 3104 758 
Q 3475 863 3866 1075 
L 3866 213 
Q 3469 63 3072 -14 
Q 2675 -91 2278 -91 
Q 1328 -91 801 392 
Q 275 875 275 1747 
Q 275 2603 792 3093 
Q 1309 3584 2216 3584 
Q 3041 3584 3536 3087 
Q 4031 2591 4031 1759 
z
M 2881 2131 
Q 2881 2450 2695 2645 
Q 2509 2841 2209 2841 
Q 1884 2841 1681 2658 
Q 1478 2475 1428 2131 
L 2881 2131 
z
" transform="scale(0.015625)"/>
      <path id="DejaVuSans-Bold-53" d="M 1656 506 
L 1656 -1331 
L 538 -1331 
L 538 3500 
L 1656 3500 
L 1656 2988 
Q 1888 3294 2169 3439 
Q 2450 3584 2816 3584 
Q 3463 3584 3878 3070 
Q 4294 2556 4294 1747 
Q 4294 938 3878 423 
Q 3463 -91 2816 -91 
Q 2450 -91 2169 54 
Q 1888 200 1656 506 
z
M 2400 2772 
Q 2041 2772 1848 2508 
Q 1656 2244 1656 1747 
Q 1656 1250 1848 986 
Q 2041 722 2400 722 
Q 2759 722 2948 984 
Q 3138 1247 3138 1747 
Q 3138 2247 2948 2509 
Q 2759 2772 2400 2772 
z
" transform="scale(0.015625)"/>
      <path id="DejaVuSans-Bold-55" d="M 3138 2547 
Q 2991 2616 2845 2648 
Q 2700 2681 2553 2681 
Q 2122 2681 1889 2404 
Q 1656 2128 1656 1613 
L 1656 0 
L 538 0 
L 538 3500 
L 1656 3500 
L 1656 2925 
Q 1872 3269 2151 3426 
Q 2431 3584 2822 3584 
Q 2878 3584 2943 3579 
Q 3009 3575 3134 3559 
L 3138 2547 
z
" transform="scale(0.015625)"/>
      <path id="DejaVuSans-Bold-3" transform="scale(0.015625)"/>
      <path id="DejaVuSans-Bold-30" d="M 588 4666 
L 2119 4666 
L 3181 2169 
L 4250 4666 
L 5778 4666 
L 5778 0 
L 4641 0 
L 4641 3413 
L 3566 897 
L 2803 897 
L 1728 3413 
L 1728 0 
L 588 0 
L 588 4666 
z
" transform="scale(0.015625)"/>
      <path id="DejaVuSans-Bold-52" d="M 2203 2784 
Q 1831 2784 1636 2517 
Q 1441 2250 1441 1747 
Q 1441 1244 1636 976 
Q 1831 709 2203 709 
Q 2569 709 2762 976 
Q 2956 1244 2956 1747 
Q 2956 2250 2762 2517 
Q 2569 2784 2203 2784 
z
M 2203 3584 
Q 3106 3584 3614 3096 
Q 4122 2609 4122 1747 
Q 4122 884 3614 396 
Q 3106 -91 2203 -91 
Q 1297 -91 786 396 
Q 275 884 275 1747 
Q 275 2609 786 3096 
Q 1297 3584 2203 3584 
z
" transform="scale(0.015625)"/>
      <path id="DejaVuSans-Bold-37" d="M 31 4666 
L 4331 4666 
L 4331 3756 
L 2784 3756 
L 2784 0 
L 1581 0 
L 1581 3756 
L 31 3756 
L 31 4666 
z
" transform="scale(0.015625)"/>
      <path id="DejaVuSans-Bold-56" d="M 3272 3391 
L 3272 2541 
Q 2913 2691 2578 2766 
Q 2244 2841 1947 2841 
Q 1628 2841 1473 2761 
Q 1319 2681 1319 2516 
Q 1319 2381 1436 2309 
Q 1553 2238 1856 2203 
L 2053 2175 
Q 2913 2066 3209 1816 
Q 3506 1566 3506 1031 
Q 3506 472 3093 190 
Q 2681 -91 1863 -91 
Q 1516 -91 1145 -36 
Q 775 19 384 128 
L 384 978 
Q 719 816 1070 734 
Q 1422 653 1784 653 
Q 2113 653 2278 743 
Q 2444 834 2444 1013 
Q 2444 1163 2330 1236 
Q 2216 1309 1875 1350 
L 1678 1375 
Q 931 1469 631 1722 
Q 331 1975 331 2491 
Q 331 3047 712 3315 
Q 1094 3584 1881 3584 
Q 2191 3584 2531 3537 
Q 2872 3491 3272 3391 
z
" transform="scale(0.015625)"/>
      <path id="DejaVuSans-Bold-af5" d="M 344 2156 
L 2856 2156 
L 2856 1350 
L 344 1350 
L 344 2156 
z
" transform="scale(0.015625)"/>
      <path id="DejaVuSans-Bold-5a" d="M 225 3500 
L 1313 3500 
L 1900 1088 
L 2491 3500 
L 3425 3500 
L 4013 1113 
L 4603 3500 
L 5691 3500 
L 4769 0 
L 3547 0 
L 2956 2406 
L 2369 0 
L 1147 0 
L 225 3500 
z
" transform="scale(0.015625)"/>
      <path id="DejaVuSans-Bold-4c" d="M 538 3500 
L 1656 3500 
L 1656 0 
L 538 0 
L 538 3500 
z
M 538 4863 
L 1656 4863 
L 1656 3950 
L 538 3950 
L 538 4863 
z
" transform="scale(0.015625)"/>
      <path id="DejaVuSans-Bold-51" d="M 4056 2131 
L 4056 0 
L 2931 0 
L 2931 347 
L 2931 1631 
Q 2931 2084 2911 2256 
Q 2891 2428 2841 2509 
Q 2775 2619 2662 2680 
Q 2550 2741 2406 2741 
Q 2056 2741 1856 2470 
Q 1656 2200 1656 1722 
L 1656 0 
L 538 0 
L 538 3500 
L 1656 3500 
L 1656 2988 
Q 1909 3294 2193 3439 
Q 2478 3584 2822 3584 
Q 3428 3584 3742 3212 
Q 4056 2841 4056 2131 
z
" transform="scale(0.015625)"/>
      <path id="DejaVuSans-Bold-4a" d="M 2919 594 
Q 2688 288 2409 144 
Q 2131 0 1766 0 
Q 1125 0 706 504 
Q 288 1009 288 1791 
Q 288 2575 706 3076 
Q 1125 3578 1766 3578 
Q 2131 3578 2409 3434 
Q 2688 3291 2919 2981 
L 2919 3500 
L 4044 3500 
L 4044 353 
Q 4044 -491 3511 -936 
Q 2978 -1381 1966 -1381 
Q 1638 -1381 1331 -1331 
Q 1025 -1281 716 -1178 
L 716 -306 
Q 1009 -475 1290 -558 
Q 1572 -641 1856 -641 
Q 2406 -641 2662 -400 
Q 2919 -159 2919 353 
L 2919 594 
z
M 2181 2772 
Q 1834 2772 1640 2515 
Q 1447 2259 1447 1791 
Q 1447 1309 1634 1061 
Q 1822 813 2181 813 
Q 2531 813 2725 1069 
Q 2919 1325 2919 1791 
Q 2919 2259 2725 2515 
Q 2531 2772 2181 2772 
z
" transform="scale(0.015625)"/>
     </defs>
     <use xlink:href="#DejaVuSans-Bold-36"/>
     <use xlink:href="#DejaVuSans-Bold-57" transform="translate(72.015625 0)"/>
     <use xlink:href="#DejaVuSans-Bold-48" transform="translate(119.8125 0)"/>
     <use xlink:href="#DejaVuSans-Bold-53" transform="translate(187.640625 0)"/>
     <use xlink:href="#DejaVuSans-Bold-53" transform="translate(259.21875 0)"/>
     <use xlink:href="#DejaVuSans-Bold-48" transform="translate(330.796875 0)"/>
     <use xlink:href="#DejaVuSans-Bold-55" transform="translate(398.625 0)"/>
     <use xlink:href="#DejaVuSans-Bold-3" transform="translate(447.9375 0)"/>
     <use xlink:href="#DejaVuSans-Bold-30" transform="translate(482.75 0)"/>
     <use xlink:href="#DejaVuSans-Bold-52" transform="translate(582.265625 0)"/>
     <use xlink:href="#DejaVuSans-Bold-57" transform="translate(650.96875 0)"/>
     <use xlink:href="#DejaVuSans-Bold-52" transform="translate(698.765625 0)"/>
     <use xlink:href="#DejaVuSans-Bold-55" transform="translate(767.46875 0)"/>
     <use xlink:href="#DejaVuSans-Bold-3" transform="translate(816.78125 0)"/>
     <use xlink:href="#DejaVuSans-Bold-37" transform="translate(851.59375 0)"/>
     <use xlink:href="#DejaVuSans-Bold-48" transform="translate(906.53125 0)"/>
     <use xlink:href="#DejaVuSans-Bold-56" transform="translate(974.359375 0)"/>
     <use xlink:href="#DejaVuSans-Bold-57" transform="translate(1033.875 0)"/>
     <use xlink:href="#DejaVuSans-Bold-3" transform="translate(1081.671875 0)"/>
     <use xlink:href="#DejaVuSans-Bold-af5" transform="translate(1116.484375 0)"/>
     <use xlink:href="#DejaVuSans-Bold-3" transform="translate(1166.484375 0)"/>
     <use xlink:href="#DejaVuSans-Bold-5a" transform="translate(1201.296875 0)"/>
     <use xlink:href="#DejaVuSans-Bold-4c" transform="translate(1293.6875 0)"/>
     <use xlink:href="#DejaVuSans-Bold-55" transform="translate(1327.96875 0)"/>
     <use xlink:href="#DejaVuSans-Bold-4c" transform="translate(1377.28125 0)"/>
     <use xlink:href="#DejaVuSans-Bold-51" transform="translate(1411.5625 0)"/>
     <use xlink:href="#DejaVuSans-Bold-4a" transform="translate(1482.75 0)"/>
    </g>
   </g>
   <g id="text_2">
    <!-- Wiring derived from the pin definitions in the sketch.  Dots = connections; crossing lines are not connected. -->
    <g style="fill: #555555" transform="translate(10.087315 33.690714) scale(0.075 -0.075)">
     <defs>
      <path id="DejaVuSans-3a" d="M 213 4666 
L 850 4666 
L 1831 722 
L 2809 4666 
L 3519 4666 
L 4500 722 
L 5478 4666 
L 6119 4666 
L 4947 0 
L 4153 0 
L 3169 4050 
L 2175 0 
L 1381 0 
L 213 4666 
z
" transform="scale(0.015625)"/>
      <path id="DejaVuSans-4c" d="M 603 3500 
L 1178 3500 
L 1178 0 
L 603 0 
L 603 3500 
z
M 603 4863 
L 1178 4863 
L 1178 4134 
L 603 4134 
L 603 4863 
z
" transform="scale(0.015625)"/>
      <path id="DejaVuSans-55" d="M 2631 2963 
Q 2534 3019 2420 3045 
Q 2306 3072 2169 3072 
Q 1681 3072 1420 2755 
Q 1159 2438 1159 1844 
L 1159 0 
L 581 0 
L 581 3500 
L 1159 3500 
L 1159 2956 
Q 1341 3275 1631 3429 
Q 1922 3584 2338 3584 
Q 2397 3584 2469 3576 
Q 2541 3569 2628 3553 
L 2631 2963 
z
" transform="scale(0.015625)"/>
      <path id="DejaVuSans-51" d="M 3513 2113 
L 3513 0 
L 2938 0 
L 2938 2094 
Q 2938 2591 2744 2837 
Q 2550 3084 2163 3084 
Q 1697 3084 1428 2787 
Q 1159 2491 1159 1978 
L 1159 0 
L 581 0 
L 581 3500 
L 1159 3500 
L 1159 2956 
Q 1366 3272 1645 3428 
Q 1925 3584 2291 3584 
Q 2894 3584 3203 3211 
Q 3513 2838 3513 2113 
z
" transform="scale(0.015625)"/>
      <path id="DejaVuSans-4a" d="M 2906 1791 
Q 2906 2416 2648 2759 
Q 2391 3103 1925 3103 
Q 1463 3103 1205 2759 
Q 947 2416 947 1791 
Q 947 1169 1205 825 
Q 1463 481 1925 481 
Q 2391 481 2648 825 
Q 2906 1169 2906 1791 
z
M 3481 434 
Q 3481 -459 3084 -895 
Q 2688 -1331 1869 -1331 
Q 1566 -1331 1297 -1286 
Q 1028 -1241 775 -1147 
L 775 -588 
Q 1028 -725 1275 -790 
Q 1522 -856 1778 -856 
Q 2344 -856 2625 -561 
Q 2906 -266 2906 331 
L 2906 616 
Q 2728 306 2450 153 
Q 2172 0 1784 0 
Q 1141 0 747 490 
Q 353 981 353 1791 
Q 353 2603 747 3093 
Q 1141 3584 1784 3584 
Q 2172 3584 2450 3431 
Q 2728 3278 2906 2969 
L 2906 3500 
L 3481 3500 
L 3481 434 
z
" transform="scale(0.015625)"/>
      <path id="DejaVuSans-3" transform="scale(0.015625)"/>
      <path id="DejaVuSans-47" d="M 2906 2969 
L 2906 4863 
L 3481 4863 
L 3481 0 
L 2906 0 
L 2906 525 
Q 2725 213 2448 61 
Q 2172 -91 1784 -91 
Q 1150 -91 751 415 
Q 353 922 353 1747 
Q 353 2572 751 3078 
Q 1150 3584 1784 3584 
Q 2172 3584 2448 3432 
Q 2725 3281 2906 2969 
z
M 947 1747 
Q 947 1113 1208 752 
Q 1469 391 1925 391 
Q 2381 391 2643 752 
Q 2906 1113 2906 1747 
Q 2906 2381 2643 2742 
Q 2381 3103 1925 3103 
Q 1469 3103 1208 2742 
Q 947 2381 947 1747 
z
" transform="scale(0.015625)"/>
      <path id="DejaVuSans-48" d="M 3597 1894 
L 3597 1613 
L 953 1613 
Q 991 1019 1311 708 
Q 1631 397 2203 397 
Q 2534 397 2845 478 
Q 3156 559 3463 722 
L 3463 178 
Q 3153 47 2828 -22 
Q 2503 -91 2169 -91 
Q 1331 -91 842 396 
Q 353 884 353 1716 
Q 353 2575 817 3079 
Q 1281 3584 2069 3584 
Q 2775 3584 3186 3129 
Q 3597 2675 3597 1894 
z
M 3022 2063 
Q 3016 2534 2758 2815 
Q 2500 3097 2075 3097 
Q 1594 3097 1305 2825 
Q 1016 2553 972 2059 
L 3022 2063 
z
" transform="scale(0.015625)"/>
      <path id="DejaVuSans-59" d="M 191 3500 
L 800 3500 
L 1894 563 
L 2988 3500 
L 3597 3500 
L 2284 0 
L 1503 0 
L 191 3500 
z
" transform="scale(0.015625)"/>
      <path id="DejaVuSans-49" d="M 2375 4863 
L 2375 4384 
L 1825 4384 
Q 1516 4384 1395 4259 
Q 1275 4134 1275 3809 
L 1275 3500 
L 2222 3500 
L 2222 3053 
L 1275 3053 
L 1275 0 
L 697 0 
L 697 3053 
L 147 3053 
L 147 3500 
L 697 3500 
L 697 3744 
Q 697 4328 969 4595 
Q 1241 4863 1831 4863 
L 2375 4863 
z
" transform="scale(0.015625)"/>
      <path id="DejaVuSans-52" d="M 1959 3097 
Q 1497 3097 1228 2736 
Q 959 2375 959 1747 
Q 959 1119 1226 758 
Q 1494 397 1959 397 
Q 2419 397 2687 759 
Q 2956 1122 2956 1747 
Q 2956 2369 2687 2733 
Q 2419 3097 1959 3097 
z
M 1959 3584 
Q 2709 3584 3137 3096 
Q 3566 2609 3566 1747 
Q 3566 888 3137 398 
Q 2709 -91 1959 -91 
Q 1206 -91 779 398 
Q 353 888 353 1747 
Q 353 2609 779 3096 
Q 1206 3584 1959 3584 
z
" transform="scale(0.015625)"/>
      <path id="DejaVuSans-50" d="M 3328 2828 
Q 3544 3216 3844 3400 
Q 4144 3584 4550 3584 
Q 5097 3584 5394 3201 
Q 5691 2819 5691 2113 
L 5691 0 
L 5113 0 
L 5113 2094 
Q 5113 2597 4934 2840 
Q 4756 3084 4391 3084 
Q 3944 3084 3684 2787 
Q 3425 2491 3425 1978 
L 3425 0 
L 2847 0 
L 2847 2094 
Q 2847 2600 2669 2842 
Q 2491 3084 2119 3084 
Q 1678 3084 1418 2786 
Q 1159 2488 1159 1978 
L 1159 0 
L 581 0 
L 581 3500 
L 1159 3500 
L 1159 2956 
Q 1356 3278 1631 3431 
Q 1906 3584 2284 3584 
Q 2666 3584 2933 3390 
Q 3200 3197 3328 2828 
z
" transform="scale(0.015625)"/>
      <path id="DejaVuSans-57" d="M 1172 4494 
L 1172 3500 
L 2356 3500 
L 2356 3053 
L 1172 3053 
L 1172 1153 
Q 1172 725 1289 603 
Q 1406 481 1766 481 
L 2356 481 
L 2356 0 
L 1766 0 
Q 1100 0 847 248 
Q 594 497 594 1153 
L 594 3053 
L 172 3053 
L 172 3500 
L 594 3500 
L 594 4494 
L 1172 4494 
z
" transform="scale(0.015625)"/>
      <path id="DejaVuSans-4b" d="M 3513 2113 
L 3513 0 
L 2938 0 
L 2938 2094 
Q 2938 2591 2744 2837 
Q 2550 3084 2163 3084 
Q 1697 3084 1428 2787 
Q 1159 2491 1159 1978 
L 1159 0 
L 581 0 
L 581 4863 
L 1159 4863 
L 1159 2956 
Q 1366 3272 1645 3428 
Q 1925 3584 2291 3584 
Q 2894 3584 3203 3211 
Q 3513 2838 3513 2113 
z
" transform="scale(0.015625)"/>
      <path id="DejaVuSans-53" d="M 1159 525 
L 1159 -1331 
L 581 -1331 
L 581 3500 
L 1159 3500 
L 1159 2969 
Q 1341 3281 1617 3432 
Q 1894 3584 2278 3584 
Q 2916 3584 3314 3078 
Q 3713 2572 3713 1747 
Q 3713 922 3314 415 
Q 2916 -91 2278 -91 
Q 1894 -91 1617 61 
Q 1341 213 1159 525 
z
M 3116 1747 
Q 3116 2381 2855 2742 
Q 2594 3103 2138 3103 
Q 1681 3103 1420 2742 
Q 1159 2381 1159 1747 
Q 1159 1113 1420 752 
Q 1681 391 2138 391 
Q 2594 391 2855 752 
Q 3116 1113 3116 1747 
z
" transform="scale(0.015625)"/>
      <path id="DejaVuSans-13af" d="M 3431 3500 
L 3431 0 
L 2853 0 
L 2853 3053 
L 1275 3053 
L 1275 0 
L 697 0 
L 697 3053 
L 147 3053 
L 147 3500 
L 697 3500 
L 697 3744 
Q 697 4316 967 4589 
Q 1238 4863 1797 4863 
L 2375 4863 
L 2375 4384 
L 1825 4384 
Q 1516 4384 1395 4259 
Q 1275 4134 1275 3809 
L 1275 3500 
L 3431 3500 
z
M 2853 4856 
L 3431 4856 
L 3431 4128 
L 2853 4128 
L 2853 4856 
z
" transform="scale(0.015625)"/>
      <path id="DejaVuSans-56" d="M 2834 3397 
L 2834 2853 
Q 2591 2978 2328 3040 
Q 2066 3103 1784 3103 
Q 1356 3103 1142 2972 
Q 928 2841 928 2578 
Q 928 2378 1081 2264 
Q 1234 2150 1697 2047 
L 1894 2003 
Q 2506 1872 2764 1633 
Q 3022 1394 3022 966 
Q 3022 478 2636 193 
Q 2250 -91 1575 -91 
Q 1294 -91 989 -36 
Q 684 19 347 128 
L 347 722 
Q 666 556 975 473 
Q 1284 391 1588 391 
Q 1994 391 2212 530 
Q 2431 669 2431 922 
Q 2431 1156 2273 1281 
Q 2116 1406 1581 1522 
L 1381 1569 
Q 847 1681 609 1914 
Q 372 2147 372 2553 
Q 372 3047 722 3315 
Q 1072 3584 1716 3584 
Q 2034 3584 2315 3537 
Q 2597 3491 2834 3397 
z
" transform="scale(0.015625)"/>
      <path id="DejaVuSans-4e" d="M 581 4863 
L 1159 4863 
L 1159 1991 
L 2875 3500 
L 3609 3500 
L 1753 1863 
L 3688 0 
L 2938 0 
L 1159 1709 
L 1159 0 
L 581 0 
L 581 4863 
z
" transform="scale(0.015625)"/>
      <path id="DejaVuSans-46" d="M 3122 3366 
L 3122 2828 
Q 2878 2963 2633 3030 
Q 2388 3097 2138 3097 
Q 1578 3097 1268 2742 
Q 959 2388 959 1747 
Q 959 1106 1268 751 
Q 1578 397 2138 397 
Q 2388 397 2633 464 
Q 2878 531 3122 666 
L 3122 134 
Q 2881 22 2623 -34 
Q 2366 -91 2075 -91 
Q 1284 -91 818 406 
Q 353 903 353 1747 
Q 353 2603 823 3093 
Q 1294 3584 2113 3584 
Q 2378 3584 2631 3529 
Q 2884 3475 3122 3366 
z
" transform="scale(0.015625)"/>
      <path id="DejaVuSans-11" d="M 684 794 
L 1344 794 
L 1344 0 
L 684 0 
L 684 794 
z
" transform="scale(0.015625)"/>
      <path id="DejaVuSans-27" d="M 1259 4147 
L 1259 519 
L 2022 519 
Q 2988 519 3436 956 
Q 3884 1394 3884 2338 
Q 3884 3275 3436 3711 
Q 2988 4147 2022 4147 
L 1259 4147 
z
M 628 4666 
L 1925 4666 
Q 3281 4666 3915 4102 
Q 4550 3538 4550 2338 
Q 4550 1131 3912 565 
Q 3275 0 1925 0 
L 628 0 
L 628 4666 
z
" transform="scale(0.015625)"/>
      <path id="DejaVuSans-20" d="M 678 2906 
L 4684 2906 
L 4684 2381 
L 678 2381 
L 678 2906 
z
M 678 1631 
L 4684 1631 
L 4684 1100 
L 678 1100 
L 678 1631 
z
" transform="scale(0.015625)"/>
      <path id="DejaVuSans-1e" d="M 750 3309 
L 1409 3309 
L 1409 2516 
L 750 2516 
L 750 3309 
z
M 750 794 
L 1409 794 
L 1409 256 
L 897 -744 
L 494 -744 
L 750 256 
L 750 794 
z
" transform="scale(0.015625)"/>
      <path id="DejaVuSans-4f" d="M 603 4863 
L 1178 4863 
L 1178 0 
L 603 0 
L 603 4863 
z
" transform="scale(0.015625)"/>
      <path id="DejaVuSans-44" d="M 2194 1759 
Q 1497 1759 1228 1600 
Q 959 1441 959 1056 
Q 959 750 1161 570 
Q 1363 391 1709 391 
Q 2188 391 2477 730 
Q 2766 1069 2766 1631 
L 2766 1759 
L 2194 1759 
z
M 3341 1997 
L 3341 0 
L 2766 0 
L 2766 531 
Q 2569 213 2275 61 
Q 1981 -91 1556 -91 
Q 1019 -91 701 211 
Q 384 513 384 1019 
Q 384 1609 779 1909 
Q 1175 2209 1959 2209 
L 2766 2209 
L 2766 2266 
Q 2766 2663 2505 2880 
Q 2244 3097 1772 3097 
Q 1472 3097 1187 3025 
Q 903 2953 641 2809 
L 641 3341 
Q 956 3463 1253 3523 
Q 1550 3584 1831 3584 
Q 2591 3584 2966 3190 
Q 3341 2797 3341 1997 
z
" transform="scale(0.015625)"/>
     </defs>
     <use xlink:href="#DejaVuSans-3a"/>
     <use xlink:href="#DejaVuSans-4c" transform="translate(96.671875 0)"/>
     <use xlink:href="#DejaVuSans-55" transform="translate(124.453125 0)"/>
     <use xlink:href="#DejaVuSans-4c" transform="translate(165.5625 0)"/>
     <use xlink:href="#DejaVuSans-51" transform="translate(193.34375 0)"/>
     <use xlink:href="#DejaVuSans-4a" transform="translate(256.71875 0)"/>
     <use xlink:href="#DejaVuSans-3" transform="translate(320.203125 0)"/>
     <use xlink:href="#DejaVuSans-47" transform="translate(351.984375 0)"/>
     <use xlink:href="#DejaVuSans-48" transform="translate(415.46875 0)"/>
     <use xlink:href="#DejaVuSans-55" transform="translate(477 0)"/>
     <use xlink:href="#DejaVuSans-4c" transform="translate(518.109375 0)"/>
     <use xlink:href="#DejaVuSans-59" transform="translate(545.890625 0)"/>
     <use xlink:href="#DejaVuSans-48" transform="translate(605.078125 0)"/>
     <use xlink:href="#DejaVuSans-47" transform="translate(666.609375 0)"/>
     <use xlink:href="#DejaVuSans-3" transform="translate(730.09375 0)"/>
     <use xlink:href="#DejaVuSans-49" transform="translate(761.875 0)"/>
     <use xlink:href="#DejaVuSans-55" transform="translate(797.078125 0)"/>
     <use xlink:href="#DejaVuSans-52" transform="translate(835.984375 0)"/>
     <use xlink:href="#DejaVuSans-50" transform="translate(897.171875 0)"/>
     <use xlink:href="#DejaVuSans-3" transform="translate(994.578125 0)"/>
     <use xlink:href="#DejaVuSans-57" transform="translate(1026.359375 0)"/>
     <use xlink:href="#DejaVuSans-4b" transform="translate(1065.5625 0)"/>
     <use xlink:href="#DejaVuSans-48" transform="translate(1128.9375 0)"/>
     <use xlink:href="#DejaVuSans-3" transform="translate(1190.46875 0)"/>
     <use xlink:href="#DejaVuSans-53" transform="translate(1222.25 0)"/>
     <use xlink:href="#DejaVuSans-4c" transform="translate(1285.734375 0)"/>
     <use xlink:href="#DejaVuSans-51" transform="translate(1313.515625 0)"/>
     <use xlink:href="#DejaVuSans-3" transform="translate(1376.890625 0)"/>
     <use xlink:href="#DejaVuSans-47" transform="translate(1408.671875 0)"/>
     <use xlink:href="#DejaVuSans-48" transform="translate(1472.15625 0)"/>
     <use xlink:href="#DejaVuSans-13af" transform="translate(1533.6875 0)"/>
     <use xlink:href="#DejaVuSans-51" transform="translate(1596.671875 0)"/>
     <use xlink:href="#DejaVuSans-4c" transform="translate(1660.046875 0)"/>
     <use xlink:href="#DejaVuSans-57" transform="translate(1687.828125 0)"/>
     <use xlink:href="#DejaVuSans-4c" transform="translate(1727.03125 0)"/>
     <use xlink:href="#DejaVuSans-52" transform="translate(1754.8125 0)"/>
     <use xlink:href="#DejaVuSans-51" transform="translate(1816 0)"/>
     <use xlink:href="#DejaVuSans-56" transform="translate(1879.375 0)"/>
     <use xlink:href="#DejaVuSans-3" transform="translate(1931.46875 0)"/>
     <use xlink:href="#DejaVuSans-4c" transform="translate(1963.25 0)"/>
     <use xlink:href="#DejaVuSans-51" transform="translate(1991.03125 0)"/>
     <use xlink:href="#DejaVuSans-3" transform="translate(2054.40625 0)"/>
     <use xlink:href="#DejaVuSans-57" transform="translate(2086.1875 0)"/>
     <use xlink:href="#DejaVuSans-4b" transform="translate(2125.390625 0)"/>
     <use xlink:href="#DejaVuSans-48" transform="translate(2188.765625 0)"/>
     <use xlink:href="#DejaVuSans-3" transform="translate(2250.296875 0)"/>
     <use xlink:href="#DejaVuSans-56" transform="translate(2282.078125 0)"/>
     <use xlink:href="#DejaVuSans-4e" transform="translate(2334.171875 0)"/>
     <use xlink:href="#DejaVuSans-48" transform="translate(2388.515625 0)"/>
     <use xlink:href="#DejaVuSans-57" transform="translate(2450.046875 0)"/>
     <use xlink:href="#DejaVuSans-46" transform="translate(2489.25 0)"/>
     <use xlink:href="#DejaVuSans-4b" transform="translate(2544.234375 0)"/>
     <use xlink:href="#DejaVuSans-11" transform="translate(2607.609375 0)"/>
     <use xlink:href="#DejaVuSans-3" transform="translate(2639.390625 0)"/>
     <use xlink:href="#DejaVuSans-3" transform="translate(2671.171875 0)"/>
     <use xlink:href="#DejaVuSans-27" transform="translate(2702.953125 0)"/>
     <use xlink:href="#DejaVuSans-52" transform="translate(2779.953125 0)"/>
     <use xlink:href="#DejaVuSans-57" transform="translate(2841.140625 0)"/>
     <use xlink:href="#DejaVuSans-56" transform="translate(2880.34375 0)"/>
     <use xlink:href="#DejaVuSans-3" transform="translate(2932.4375 0)"/>
     <use xlink:href="#DejaVuSans-20" transform="translate(2964.21875 0)"/>
     <use xlink:href="#DejaVuSans-3" transform="translate(3048.015625 0)"/>
     <use xlink:href="#DejaVuSans-46" transform="translate(3079.796875 0)"/>
     <use xlink:href="#DejaVuSans-52" transform="translate(3134.78125 0)"/>
     <use xlink:href="#DejaVuSans-51" transform="translate(3195.96875 0)"/>
     <use xlink:href="#DejaVuSans-51" transform="translate(3259.34375 0)"/>
     <use xlink:href="#DejaVuSans-48" transform="translate(3322.71875 0)"/>
     <use xlink:href="#DejaVuSans-46" transform="translate(3384.25 0)"/>
     <use xlink:href="#DejaVuSans-57" transform="translate(3439.234375 0)"/>
     <use xlink:href="#DejaVuSans-4c" transform="translate(3478.4375 0)"/>
     <use xlink:href="#DejaVuSans-52" transform="translate(3506.21875 0)"/>
     <use xlink:href="#DejaVuSans-51" transform="translate(3567.40625 0)"/>
     <use xlink:href="#DejaVuSans-56" transform="translate(3630.78125 0)"/>
     <use xlink:href="#DejaVuSans-1e" transform="translate(3682.875 0)"/>
     <use xlink:href="#DejaVuSans-3" transform="translate(3716.5625 0)"/>
     <use xlink:href="#DejaVuSans-46" transform="translate(3748.34375 0)"/>
     <use xlink:href="#DejaVuSans-55" transform="translate(3803.328125 0)"/>
     <use xlink:href="#DejaVuSans-52" transform="translate(3842.234375 0)"/>
     <use xlink:href="#DejaVuSans-56" transform="translate(3903.421875 0)"/>
     <use xlink:href="#DejaVuSans-56" transform="translate(3955.515625 0)"/>
     <use xlink:href="#DejaVuSans-4c" transform="translate(4007.609375 0)"/>
     <use xlink:href="#DejaVuSans-51" transform="translate(4035.390625 0)"/>
     <use xlink:href="#DejaVuSans-4a" transform="translate(4098.765625 0)"/>
     <use xlink:href="#DejaVuSans-3" transform="translate(4162.25 0)"/>
     <use xlink:href="#DejaVuSans-4f" transform="translate(4194.03125 0)"/>
     <use xlink:href="#DejaVuSans-4c" transform="translate(4221.8125 0)"/>
     <use xlink:href="#DejaVuSans-51" transform="translate(4249.59375 0)"/>
     <use xlink:href="#DejaVuSans-48" transform="translate(4312.96875 0)"/>
     <use xlink:href="#DejaVuSans-56" transform="translate(4374.5 0)"/>
     <use xlink:href="#DejaVuSans-3" transform="translate(4426.59375 0)"/>
     <use xlink:href="#DejaVuSans-44" transform="translate(4458.375 0)"/>
     <use xlink:href="#DejaVuSans-55" transform="translate(4519.65625 0)"/>
     <use xlink:href="#DejaVuSans-48" transform="translate(4558.5625 0)"/>
     <use xlink:href="#DejaVuSans-3" transform="translate(4620.09375 0)"/>
     <use xlink:href="#DejaVuSans-51" transform="translate(4651.875 0)"/>
     <use xlink:href="#DejaVuSans-52" transform="translate(4715.25 0)"/>
     <use xlink:href="#DejaVuSans-57" transform="translate(4776.4375 0)"/>
     <use xlink:href="#DejaVuSans-3" transform="translate(4815.640625 0)"/>
     <use xlink:href="#DejaVuSans-46" transform="translate(4847.421875 0)"/>
     <use xlink:href="#DejaVuSans-52" transform="translate(4902.40625 0)"/>
     <use xlink:href="#DejaVuSans-51" transform="translate(4963.59375 0)"/>
     <use xlink:href="#DejaVuSans-51" transform="translate(5026.96875 0)"/>
     <use xlink:href="#DejaVuSans-48" transform="translate(5090.34375 0)"/>
     <use xlink:href="#DejaVuSans-46" transform="translate(5151.875 0)"/>
     <use xlink:href="#DejaVuSans-57" transform="translate(5206.859375 0)"/>
     <use xlink:href="#DejaVuSans-48" transform="translate(5246.0625 0)"/>
     <use xlink:href="#DejaVuSans-47" transform="translate(5307.59375 0)"/>
     <use xlink:href="#DejaVuSans-11" transform="translate(5371.078125 0)"/>
    </g>
   </g>
   <g id="text_3">
    <!-- Arduino Uno -->
    <g style="fill: #ffffff" transform="translate(23.055882 68.858106) scale(0.095 -0.095)">
     <defs>
      <path id="DejaVuSans-Bold-24" d="M 3419 850 
L 1538 850 
L 1241 0 
L 31 0 
L 1759 4666 
L 3194 4666 
L 4922 0 
L 3713 0 
L 3419 850 
z
M 1838 1716 
L 3116 1716 
L 2478 3572 
L 1838 1716 
z
" transform="scale(0.015625)"/>
      <path id="DejaVuSans-Bold-47" d="M 2919 2988 
L 2919 4863 
L 4044 4863 
L 4044 0 
L 2919 0 
L 2919 506 
Q 2688 197 2409 53 
Q 2131 -91 1766 -91 
Q 1119 -91 703 423 
Q 288 938 288 1747 
Q 288 2556 703 3070 
Q 1119 3584 1766 3584 
Q 2128 3584 2408 3439 
Q 2688 3294 2919 2988 
z
M 2181 722 
Q 2541 722 2730 984 
Q 2919 1247 2919 1747 
Q 2919 2247 2730 2509 
Q 2541 2772 2181 2772 
Q 1825 2772 1636 2509 
Q 1447 2247 1447 1747 
Q 1447 1247 1636 984 
Q 1825 722 2181 722 
z
" transform="scale(0.015625)"/>
      <path id="DejaVuSans-Bold-58" d="M 500 1363 
L 500 3500 
L 1625 3500 
L 1625 3150 
Q 1625 2866 1622 2436 
Q 1619 2006 1619 1863 
Q 1619 1441 1641 1255 
Q 1663 1069 1716 984 
Q 1784 875 1895 815 
Q 2006 756 2150 756 
Q 2500 756 2700 1025 
Q 2900 1294 2900 1772 
L 2900 3500 
L 4019 3500 
L 4019 0 
L 2900 0 
L 2900 506 
Q 2647 200 2364 54 
Q 2081 -91 1741 -91 
Q 1134 -91 817 281 
Q 500 653 500 1363 
z
" transform="scale(0.015625)"/>
      <path id="DejaVuSans-Bold-38" d="M 588 4666 
L 1791 4666 
L 1791 1869 
Q 1791 1291 1980 1042 
Q 2169 794 2597 794 
Q 3028 794 3217 1042 
Q 3406 1291 3406 1869 
L 3406 4666 
L 4609 4666 
L 4609 1869 
Q 4609 878 4112 393 
Q 3616 -91 2597 -91 
Q 1581 -91 1084 393 
Q 588 878 588 1869 
L 588 4666 
z
" transform="scale(0.015625)"/>
     </defs>
     <use xlink:href="#DejaVuSans-Bold-24"/>
     <use xlink:href="#DejaVuSans-Bold-55" transform="translate(77.390625 0)"/>
     <use xlink:href="#DejaVuSans-Bold-47" transform="translate(126.703125 0)"/>
     <use xlink:href="#DejaVuSans-Bold-58" transform="translate(198.28125 0)"/>
     <use xlink:href="#DejaVuSans-Bold-4c" transform="translate(269.46875 0)"/>
     <use xlink:href="#DejaVuSans-Bold-51" transform="translate(303.75 0)"/>
     <use xlink:href="#DejaVuSans-Bold-52" transform="translate(374.9375 0)"/>
     <use xlink:href="#DejaVuSans-Bold-3" transform="translate(443.640625 0)"/>
     <use xlink:href="#DejaVuSans-Bold-38" transform="translate(478.453125 0)"/>
     <use xlink:href="#DejaVuSans-Bold-51" transform="translate(559.65625 0)"/>
     <use xlink:href="#DejaVuSans-Bold-52" transform="translate(630.84375 0)"/>
    </g>
   </g>
   <g id="text_4">
    <!-- 5V -->
    <g style="fill: #ffffff" transform="translate(76.366637 84.478203) scale(0.085 -0.085)">
     <defs>
      <path id="DejaVuSansMono-18" d="M 647 4666 
L 3009 4666 
L 3009 4134 
L 1222 4134 
L 1222 2988 
Q 1356 3038 1492 3061 
Q 1628 3084 1766 3084 
Q 2491 3084 2916 2656 
Q 3341 2228 3341 1497 
Q 3341 759 2895 334 
Q 2450 -91 1678 -91 
Q 1306 -91 998 -41 
Q 691 9 447 109 
L 447 750 
Q 734 594 1025 517 
Q 1316 441 1619 441 
Q 2141 441 2423 716 
Q 2706 991 2706 1497 
Q 2706 1997 2414 2275 
Q 2122 2553 1600 2553 
Q 1347 2553 1106 2495 
Q 866 2438 647 2322 
L 647 4666 
z
" transform="scale(0.015625)"/>
      <path id="DejaVuSansMono-39" d="M 1925 531 
L 3022 4666 
L 3675 4666 
L 2309 0 
L 1544 0 
L 178 4666 
L 831 4666 
L 1925 531 
z
" transform="scale(0.015625)"/>
     </defs>
     <use xlink:href="#DejaVuSansMono-18"/>
     <use xlink:href="#DejaVuSansMono-39" transform="translate(60.203125 0)"/>
    </g>
   </g>
   <g id="text_5">
    <!-- GND -->
    <g style="fill: #ffffff" transform="translate(71.249371 100.358437) scale(0.085 -0.085)">
     <defs>
      <path id="DejaVuSansMono-2a" d="M 3450 384 
Q 3197 150 2880 29 
Q 2563 -91 2194 -91 
Q 1306 -91 812 545 
Q 319 1181 319 2328 
Q 319 3472 819 4111 
Q 1319 4750 2209 4750 
Q 2503 4750 2772 4667 
Q 3041 4584 3291 4416 
L 3291 3769 
Q 3038 4009 2772 4123 
Q 2506 4238 2209 4238 
Q 1594 4238 1286 3761 
Q 978 3284 978 2328 
Q 978 1356 1276 889 
Q 1575 422 2194 422 
Q 2403 422 2561 470 
Q 2719 519 2847 622 
L 2847 1875 
L 2169 1875 
L 2169 2394 
L 3450 2394 
L 3450 384 
z
" transform="scale(0.015625)"/>
      <path id="DejaVuSansMono-31" d="M 434 4666 
L 1234 4666 
L 2809 825 
L 2809 4666 
L 3419 4666 
L 3419 0 
L 2619 0 
L 1044 3841 
L 1044 0 
L 434 0 
L 434 4666 
z
" transform="scale(0.015625)"/>
      <path id="DejaVuSansMono-27" d="M 1363 519 
Q 2159 519 2475 911 
Q 2791 1303 2791 2328 
Q 2791 3363 2477 3755 
Q 2163 4147 1363 4147 
L 1063 4147 
L 1063 519 
L 1363 519 
z
M 1375 4666 
Q 2444 4666 2950 4097 
Q 3456 3528 3456 2328 
Q 3456 1134 2950 567 
Q 2444 0 1375 0 
L 428 0 
L 428 4666 
L 1375 4666 
z
" transform="scale(0.015625)"/>
     </defs>
     <use xlink:href="#DejaVuSansMono-2a"/>
     <use xlink:href="#DejaVuSansMono-31" transform="translate(60.203125 0)"/>
     <use xlink:href="#DejaVuSansMono-27" transform="translate(120.40625 0)"/>
    </g>
   </g>
   <g id="text_6">
    <!-- D8 -->
    <g style="fill: #ffffff" transform="translate(76.366637 116.23867) scale(0.085 -0.085)">
     <defs>
      <path id="DejaVuSansMono-1b" d="M 1925 2216 
Q 1503 2216 1273 1980 
Q 1044 1744 1044 1313 
Q 1044 881 1276 642 
Q 1509 403 1925 403 
Q 2350 403 2579 639 
Q 2809 875 2809 1313 
Q 2809 1741 2576 1978 
Q 2344 2216 1925 2216 
z
M 1375 2478 
Q 972 2581 745 2862 
Q 519 3144 519 3541 
Q 519 4097 897 4423 
Q 1275 4750 1925 4750 
Q 2578 4750 2956 4423 
Q 3334 4097 3334 3541 
Q 3334 3144 3107 2862 
Q 2881 2581 2478 2478 
Q 2947 2375 3195 2062 
Q 3444 1750 3444 1253 
Q 3444 622 3041 265 
Q 2638 -91 1925 -91 
Q 1213 -91 811 264 
Q 409 619 409 1247 
Q 409 1747 657 2061 
Q 906 2375 1375 2478 
z
M 1147 3481 
Q 1147 3106 1347 2909 
Q 1547 2713 1925 2713 
Q 2306 2713 2506 2909 
Q 2706 3106 2706 3481 
Q 2706 3863 2507 4063 
Q 2309 4263 1925 4263 
Q 1547 4263 1347 4061 
Q 1147 3859 1147 3481 
z
" transform="scale(0.015625)"/>
     </defs>
     <use xlink:href="#DejaVuSansMono-27"/>
     <use xlink:href="#DejaVuSansMono-1b" transform="translate(60.203125 0)"/>
    </g>
   </g>
   <g id="text_7">
    <!-- D9 -->
    <g style="fill: #ffffff" transform="translate(76.366637 132.118904) scale(0.085 -0.085)">
     <defs>
      <path id="DejaVuSansMono-1c" d="M 1863 2069 
Q 2266 2069 2495 2359 
Q 2725 2650 2725 3163 
Q 2725 3675 2495 3965 
Q 2266 4256 1863 4256 
Q 1444 4256 1231 3979 
Q 1019 3703 1019 3163 
Q 1019 2619 1230 2344 
Q 1441 2069 1863 2069 
z
M 738 97 
L 738 678 
Q 934 563 1156 502 
Q 1378 441 1619 441 
Q 2219 441 2526 892 
Q 2834 1344 2834 2222 
Q 2688 1909 2422 1742 
Q 2156 1575 1813 1575 
Q 1138 1575 767 1990 
Q 397 2406 397 3169 
Q 397 3922 776 4336 
Q 1156 4750 1850 4750 
Q 2663 4750 3041 4165 
Q 3419 3581 3419 2328 
Q 3419 1150 2964 529 
Q 2509 -91 1644 -91 
Q 1416 -91 1184 -42 
Q 953 6 738 97 
z
" transform="scale(0.015625)"/>
     </defs>
     <use xlink:href="#DejaVuSansMono-27"/>
     <use xlink:href="#DejaVuSansMono-1c" transform="translate(60.203125 0)"/>
    </g>
   </g>
   <g id="text_8">
    <!-- D10 -->
    <g style="fill: #ffffff" transform="translate(71.249371 147.999137) scale(0.085 -0.085)">
     <defs>
      <path id="DejaVuSansMono-14" d="M 844 531 
L 1825 531 
L 1825 4097 
L 769 3859 
L 769 4434 
L 1819 4666 
L 2450 4666 
L 2450 531 
L 3419 531 
L 3419 0 
L 844 0 
L 844 531 
z
" transform="scale(0.015625)"/>
      <path id="DejaVuSansMono-13" d="M 1509 2344 
Q 1509 2516 1629 2641 
Q 1750 2766 1919 2766 
Q 2094 2766 2219 2641 
Q 2344 2516 2344 2344 
Q 2344 2169 2220 2047 
Q 2097 1925 1919 1925 
Q 1744 1925 1626 2044 
Q 1509 2163 1509 2344 
z
M 1925 4250 
Q 1484 4250 1267 3775 
Q 1050 3300 1050 2328 
Q 1050 1359 1267 884 
Q 1484 409 1925 409 
Q 2369 409 2586 884 
Q 2803 1359 2803 2328 
Q 2803 3300 2586 3775 
Q 2369 4250 1925 4250 
z
M 1925 4750 
Q 2672 4750 3055 4137 
Q 3438 3525 3438 2328 
Q 3438 1134 3055 521 
Q 2672 -91 1925 -91 
Q 1178 -91 797 521 
Q 416 1134 416 2328 
Q 416 3525 797 4137 
Q 1178 4750 1925 4750 
z
" transform="scale(0.015625)"/>
     </defs>
     <use xlink:href="#DejaVuSansMono-27"/>
     <use xlink:href="#DejaVuSansMono-14" transform="translate(60.203125 0)"/>
     <use xlink:href="#DejaVuSansMono-13" transform="translate(120.40625 0)"/>
    </g>
   </g>
   <g id="text_9">
    <!-- D11 -->
    <g style="fill: #ffffff" transform="translate(71.249371 163.879371) scale(0.085 -0.085)">
     <use xlink:href="#DejaVuSansMono-27"/>
     <use xlink:href="#DejaVuSansMono-14" transform="translate(60.203125 0)"/>
     <use xlink:href="#DejaVuSansMono-14" transform="translate(120.40625 0)"/>
    </g>
   </g>
   <g id="line2d_7">
    <defs>
     <path id="mcd8f5e1d88" d="M 0 2 
C 0.530406 2 1.03916 1.789267 1.414214 1.414214 
C 1.789267 1.03916 2 0.530406 2 0 
C 2 -0.530406 1.789267 -1.03916 1.414214 -1.414214 
C 1.03916 -1.789267 0.530406 -2 0 -2 
C -0.530406 -2 -1.03916 -1.789267 -1.414214 -1.414214 
C -1.789267 -1.03916 -2 -0.530406 -2 0 
C -2 0.530406 -1.789267 1.03916 -1.414214 1.414214 
C -1.03916 1.789267 -0.530406 2 0 2 
z
" style="stroke: #222222"/>
    </defs>
    <g clip-path="url(#p59d34b3cb0)">
     <use xlink:href="#mcd8f5e1d88" x="98.150429" y="98.150429" style="fill: #222222; stroke: #222222"/>
    </g>
   </g>
   <g id="line2d_8">
    <g clip-path="url(#p59d34b3cb0)">
     <use xlink:href="#mcd8f5e1d88" x="192.565636" y="158.784048" style="fill: #222222; stroke: #222222"/>
    </g>
   </g>
   <g id="line2d_9">
    <defs>
     <path id="mca6f28a83f" d="M 0 2 
C 0.530406 2 1.03916 1.789267 1.414214 1.414214 
C 1.789267 1.03916 2 0.530406 2 0 
C 2 -0.530406 1.789267 -1.03916 1.414214 -1.414214 
C 1.03916 -1.789267 0.530406 -2 0 -2 
C -0.530406 -2 -1.03916 -1.789267 -1.414214 -1.414214 
C -1.789267 -1.03916 -2 -0.530406 -2 0 
C -2 0.530406 -1.789267 1.03916 -1.414214 1.414214 
C -1.03916 1.789267 -0.530406 2 0 2 
z
" style="stroke: #d62728"/>
    </defs>
    <g clip-path="url(#p59d34b3cb0)">
     <use xlink:href="#mca6f28a83f" x="98.150429" y="82.270195" style="fill: #d62728; stroke: #d62728"/>
    </g>
   </g>
   <g id="line2d_10">
    <g clip-path="url(#p59d34b3cb0)">
     <use xlink:href="#mca6f28a83f" x="192.565636" y="142.903814" style="fill: #d62728; stroke: #d62728"/>
    </g>
   </g>
   <g id="line2d_11">
    <defs>
     <path id="mb0c9684740" d="M 0 2 
C 0.530406 2 1.03916 1.789267 1.414214 1.414214 
C 1.789267 1.03916 2 0.530406 2 0 
C 2 -0.530406 1.789267 -1.03916 1.414214 -1.414214 
C 1.03916 -1.789267 0.530406 -2 0 -2 
C -0.530406 -2 -1.03916 -1.789267 -1.414214 -1.414214 
C -1.789267 -1.03916 -2 -0.530406 -2 0 
C -2 0.530406 -1.789267 1.03916 -1.414214 1.414214 
C -1.03916 1.789267 -0.530406 2 0 2 
z
" style="stroke: #1f77b4"/>
    </defs>
    <g clip-path="url(#p59d34b3cb0)">
     <use xlink:href="#mb0c9684740" x="98.150429" y="114.030662" style="fill: #1f77b4; stroke: #1f77b4"/>
    </g>
   </g>
   <g id="line2d_12">
    <g clip-path="url(#p59d34b3cb0)">
     <use xlink:href="#mb0c9684740" x="192.565636" y="79.38288" style="fill: #1f77b4; stroke: #1f77b4"/>
    </g>
   </g>
   <g id="line2d_13">
    <defs>
     <path id="m2a20c184f0" d="M 0 2 
C 0.530406 2 1.03916 1.789267 1.414214 1.414214 
C 1.789267 1.03916 2 0.530406 2 0 
C 2 -0.530406 1.789267 -1.03916 1.414214 -1.414214 
C 1.03916 -1.789267 0.530406 -2 0 -2 
C -0.530406 -2 -1.03916 -1.789267 -1.414214 -1.414214 
C -1.789267 -1.03916 -2 -0.530406 -2 0 
C -2 0.530406 -1.789267 1.03916 -1.414214 1.414214 
C -1.03916 1.789267 -0.530406 2 0 2 
z
" style="stroke: #2ca02c"/>
    </defs>
    <g clip-path="url(#p59d34b3cb0)">
     <use xlink:href="#m2a20c184f0" x="98.150429" y="129.910896" style="fill: #2ca02c; stroke: #2ca02c"/>
    </g>
   </g>
   <g id="line2d_14">
    <g clip-path="url(#p59d34b3cb0)">
     <use xlink:href="#m2a20c184f0" x="192.565636" y="95.263114" style="fill: #2ca02c; stroke: #2ca02c"/>
    </g>
   </g>
   <g id="line2d_15">
    <defs>
     <path id="mcd5bc26016" d="M 0 2 
C 0.530406 2 1.03916 1.789267 1.414214 1.414214 
C 1.789267 1.03916 2 0.530406 2 0 
C 2 -0.530406 1.789267 -1.03916 1.414214 -1.414214 
C 1.03916 -1.789267 0.530406 -2 0 -2 
C -0.530406 -2 -1.03916 -1.789267 -1.414214 -1.414214 
C -1.789267 -1.03916 -2 -0.530406 -2 0 
C -2 0.530406 -1.789267 1.03916 -1.414214 1.414214 
C -1.03916 1.789267 -0.530406 2 0 2 
z
" style="stroke: #9467bd"/>
    </defs>
    <g clip-path="url(#p59d34b3cb0)">
     <use xlink:href="#mcd5bc26016" x="98.150429" y="145.79113" style="fill: #9467bd; stroke: #9467bd"/>
    </g>
   </g>
   <g id="line2d_16">
    <g clip-path="url(#p59d34b3cb0)">
     <use xlink:href="#mcd5bc26016" x="192.565636" y="111.143347" style="fill: #9467bd; stroke: #9467bd"/>
    </g>
   </g>
   <g id="line2d_17">
    <defs>
     <path id="m43c7e94610" d="M 0 2 
C 0.530406 2 1.03916 1.789267 1.414214 1.414214 
C 1.789267 1.03916 2 0.530406 2 0 
C 2 -0.530406 1.789267 -1.03916 1.414214 -1.414214 
C 1.03916 -1.789267 0.530406 -2 0 -2 
C -0.530406 -2 -1.03916 -1.789267 -1.414214 -1.414214 
C -1.789267 -1.03916 -2 -0.530406 -2 0 
C -2 0.530406 -1.789267 1.03916 -1.414214 1.414214 
C -1.03916 1.789267 -0.530406 2 0 2 
z
" style="stroke: #17becf"/>
    </defs>
    <g clip-path="url(#p59d34b3cb0)">
     <use xlink:href="#m43c7e94610" x="98.150429" y="161.671363" style="fill: #17becf; stroke: #17becf"/>
    </g>
   </g>
   <g id="line2d_18">
    <g clip-path="url(#p59d34b3cb0)">
     <use xlink:href="#m43c7e94610" x="192.565636" y="127.023581" style="fill: #17becf; stroke: #17becf"/>
    </g>
   </g>
   <g id="text_10">
    <!-- ULN2003 driver board -->
    <g transform="translate(199.945487 64.527133) scale(0.095 -0.095)">
     <defs>
      <path id="DejaVuSans-Bold-2f" d="M 588 4666 
L 1791 4666 
L 1791 909 
L 3903 909 
L 3903 0 
L 588 0 
L 588 4666 
z
" transform="scale(0.015625)"/>
      <path id="DejaVuSans-Bold-31" d="M 588 4666 
L 1931 4666 
L 3628 1466 
L 3628 4666 
L 4769 4666 
L 4769 0 
L 3425 0 
L 1728 3200 
L 1728 0 
L 588 0 
L 588 4666 
z
" transform="scale(0.015625)"/>
      <path id="DejaVuSans-Bold-15" d="M 1844 884 
L 3897 884 
L 3897 0 
L 506 0 
L 506 884 
L 2209 2388 
Q 2438 2594 2547 2791 
Q 2656 2988 2656 3200 
Q 2656 3528 2436 3728 
Q 2216 3928 1850 3928 
Q 1569 3928 1234 3808 
Q 900 3688 519 3450 
L 519 4475 
Q 925 4609 1322 4679 
Q 1719 4750 2100 4750 
Q 2938 4750 3402 4381 
Q 3866 4013 3866 3353 
Q 3866 2972 3669 2642 
Q 3472 2313 2841 1759 
L 1844 884 
z
" transform="scale(0.015625)"/>
      <path id="DejaVuSans-Bold-13" d="M 2944 2338 
Q 2944 3213 2780 3570 
Q 2616 3928 2228 3928 
Q 1841 3928 1675 3570 
Q 1509 3213 1509 2338 
Q 1509 1453 1675 1090 
Q 1841 728 2228 728 
Q 2613 728 2778 1090 
Q 2944 1453 2944 2338 
z
M 4147 2328 
Q 4147 1169 3647 539 
Q 3147 -91 2228 -91 
Q 1306 -91 806 539 
Q 306 1169 306 2328 
Q 306 3491 806 4120 
Q 1306 4750 2228 4750 
Q 3147 4750 3647 4120 
Q 4147 3491 4147 2328 
z
" transform="scale(0.015625)"/>
      <path id="DejaVuSans-Bold-16" d="M 2981 2516 
Q 3453 2394 3698 2092 
Q 3944 1791 3944 1325 
Q 3944 631 3412 270 
Q 2881 -91 1863 -91 
Q 1503 -91 1142 -33 
Q 781 25 428 141 
L 428 1069 
Q 766 900 1098 814 
Q 1431 728 1753 728 
Q 2231 728 2486 893 
Q 2741 1059 2741 1369 
Q 2741 1688 2480 1852 
Q 2219 2016 1709 2016 
L 1228 2016 
L 1228 2791 
L 1734 2791 
Q 2188 2791 2409 2933 
Q 2631 3075 2631 3366 
Q 2631 3634 2415 3781 
Q 2200 3928 1806 3928 
Q 1516 3928 1219 3862 
Q 922 3797 628 3669 
L 628 4550 
Q 984 4650 1334 4700 
Q 1684 4750 2022 4750 
Q 2931 4750 3382 4451 
Q 3834 4153 3834 3553 
Q 3834 3144 3618 2883 
Q 3403 2622 2981 2516 
z
" transform="scale(0.015625)"/>
      <path id="DejaVuSans-Bold-59" d="M 97 3500 
L 1216 3500 
L 2088 1081 
L 2956 3500 
L 4078 3500 
L 2700 0 
L 1472 0 
L 97 3500 
z
" transform="scale(0.015625)"/>
      <path id="DejaVuSans-Bold-45" d="M 2400 722 
Q 2759 722 2948 984 
Q 3138 1247 3138 1747 
Q 3138 2247 2948 2509 
Q 2759 2772 2400 2772 
Q 2041 2772 1848 2508 
Q 1656 2244 1656 1747 
Q 1656 1250 1848 986 
Q 2041 722 2400 722 
z
M 1656 2988 
Q 1888 3294 2169 3439 
Q 2450 3584 2816 3584 
Q 3463 3584 3878 3070 
Q 4294 2556 4294 1747 
Q 4294 938 3878 423 
Q 3463 -91 2816 -91 
Q 2450 -91 2169 54 
Q 1888 200 1656 506 
L 1656 0 
L 538 0 
L 538 4863 
L 1656 4863 
L 1656 2988 
z
" transform="scale(0.015625)"/>
      <path id="DejaVuSans-Bold-44" d="M 2106 1575 
Q 1756 1575 1579 1456 
Q 1403 1338 1403 1106 
Q 1403 894 1545 773 
Q 1688 653 1941 653 
Q 2256 653 2472 879 
Q 2688 1106 2688 1447 
L 2688 1575 
L 2106 1575 
z
M 3816 1997 
L 3816 0 
L 2688 0 
L 2688 519 
Q 2463 200 2181 54 
Q 1900 -91 1497 -91 
Q 953 -91 614 226 
Q 275 544 275 1050 
Q 275 1666 698 1953 
Q 1122 2241 2028 2241 
L 2688 2241 
L 2688 2328 
Q 2688 2594 2478 2717 
Q 2269 2841 1825 2841 
Q 1466 2841 1156 2769 
Q 847 2697 581 2553 
L 581 3406 
Q 941 3494 1303 3539 
Q 1666 3584 2028 3584 
Q 2975 3584 3395 3211 
Q 3816 2838 3816 1997 
z
" transform="scale(0.015625)"/>
     </defs>
     <use xlink:href="#DejaVuSans-Bold-38"/>
     <use xlink:href="#DejaVuSans-Bold-2f" transform="translate(81.203125 0)"/>
     <use xlink:href="#DejaVuSans-Bold-31" transform="translate(144.921875 0)"/>
     <use xlink:href="#DejaVuSans-Bold-15" transform="translate(228.609375 0)"/>
     <use xlink:href="#DejaVuSans-Bold-13" transform="translate(298.1875 0)"/>
     <use xlink:href="#DejaVuSans-Bold-13" transform="translate(367.765625 0)"/>
     <use xlink:href="#DejaVuSans-Bold-16" transform="translate(437.34375 0)"/>
     <use xlink:href="#DejaVuSans-Bold-3" transform="translate(506.921875 0)"/>
     <use xlink:href="#DejaVuSans-Bold-47" transform="translate(541.734375 0)"/>
     <use xlink:href="#DejaVuSans-Bold-55" transform="translate(613.3125 0)"/>
     <use xlink:href="#DejaVuSans-Bold-4c" transform="translate(662.625 0)"/>
     <use xlink:href="#DejaVuSans-Bold-59" transform="translate(696.90625 0)"/>
     <use xlink:href="#DejaVuSans-Bold-48" transform="translate(762.09375 0)"/>
     <use xlink:href="#DejaVuSans-Bold-55" transform="translate(829.921875 0)"/>
     <use xlink:href="#DejaVuSans-Bold-3" transform="translate(879.234375 0)"/>
     <use xlink:href="#DejaVuSans-Bold-45" transform="translate(914.046875 0)"/>
     <use xlink:href="#DejaVuSans-Bold-52" transform="translate(985.625 0)"/>
     <use xlink:href="#DejaVuSans-Bold-44" transform="translate(1054.328125 0)"/>
     <use xlink:href="#DejaVuSans-Bold-55" transform="translate(1121.8125 0)"/>
     <use xlink:href="#DejaVuSans-Bold-47" transform="translate(1171.125 0)"/>
    </g>
   </g>
   <g id="text_11">
    <!-- 28BYJ-48 plugs into the 5-pin socket -->
    <g style="fill: #444444" transform="translate(195.861776 71.962104) scale(0.07 -0.07)">
     <defs>
      <path id="DejaVuSans-15" d="M 1228 531 
L 3431 531 
L 3431 0 
L 469 0 
L 469 531 
Q 828 903 1448 1529 
Q 2069 2156 2228 2338 
Q 2531 2678 2651 2914 
Q 2772 3150 2772 3378 
Q 2772 3750 2511 3984 
Q 2250 4219 1831 4219 
Q 1534 4219 1204 4116 
Q 875 4013 500 3803 
L 500 4441 
Q 881 4594 1212 4672 
Q 1544 4750 1819 4750 
Q 2544 4750 2975 4387 
Q 3406 4025 3406 3419 
Q 3406 3131 3298 2873 
Q 3191 2616 2906 2266 
Q 2828 2175 2409 1742 
Q 1991 1309 1228 531 
z
" transform="scale(0.015625)"/>
      <path id="DejaVuSans-1b" d="M 2034 2216 
Q 1584 2216 1326 1975 
Q 1069 1734 1069 1313 
Q 1069 891 1326 650 
Q 1584 409 2034 409 
Q 2484 409 2743 651 
Q 3003 894 3003 1313 
Q 3003 1734 2745 1975 
Q 2488 2216 2034 2216 
z
M 1403 2484 
Q 997 2584 770 2862 
Q 544 3141 544 3541 
Q 544 4100 942 4425 
Q 1341 4750 2034 4750 
Q 2731 4750 3128 4425 
Q 3525 4100 3525 3541 
Q 3525 3141 3298 2862 
Q 3072 2584 2669 2484 
Q 3125 2378 3379 2068 
Q 3634 1759 3634 1313 
Q 3634 634 3220 271 
Q 2806 -91 2034 -91 
Q 1263 -91 848 271 
Q 434 634 434 1313 
Q 434 1759 690 2068 
Q 947 2378 1403 2484 
z
M 1172 3481 
Q 1172 3119 1398 2916 
Q 1625 2713 2034 2713 
Q 2441 2713 2670 2916 
Q 2900 3119 2900 3481 
Q 2900 3844 2670 4047 
Q 2441 4250 2034 4250 
Q 1625 4250 1398 4047 
Q 1172 3844 1172 3481 
z
" transform="scale(0.015625)"/>
      <path id="DejaVuSans-25" d="M 1259 2228 
L 1259 519 
L 2272 519 
Q 2781 519 3026 730 
Q 3272 941 3272 1375 
Q 3272 1813 3026 2020 
Q 2781 2228 2272 2228 
L 1259 2228 
z
M 1259 4147 
L 1259 2741 
L 2194 2741 
Q 2656 2741 2882 2914 
Q 3109 3088 3109 3444 
Q 3109 3797 2882 3972 
Q 2656 4147 2194 4147 
L 1259 4147 
z
M 628 4666 
L 2241 4666 
Q 2963 4666 3353 4366 
Q 3744 4066 3744 3513 
Q 3744 3084 3544 2831 
Q 3344 2578 2956 2516 
Q 3422 2416 3680 2098 
Q 3938 1781 3938 1306 
Q 3938 681 3513 340 
Q 3088 0 2303 0 
L 628 0 
L 628 4666 
z
" transform="scale(0.015625)"/>
      <path id="DejaVuSans-3c" d="M -13 4666 
L 666 4666 
L 1959 2747 
L 3244 4666 
L 3922 4666 
L 2272 2222 
L 2272 0 
L 1638 0 
L 1638 2222 
L -13 4666 
z
" transform="scale(0.015625)"/>
      <path id="DejaVuSans-2d" d="M 628 4666 
L 1259 4666 
L 1259 325 
Q 1259 -519 939 -900 
Q 619 -1281 -91 -1281 
L -331 -1281 
L -331 -750 
L -134 -750 
Q 284 -750 456 -515 
Q 628 -281 628 325 
L 628 4666 
z
" transform="scale(0.015625)"/>
      <path id="DejaVuSans-10" d="M 313 2009 
L 1997 2009 
L 1997 1497 
L 313 1497 
L 313 2009 
z
" transform="scale(0.015625)"/>
      <path id="DejaVuSans-17" d="M 2419 4116 
L 825 1625 
L 2419 1625 
L 2419 4116 
z
M 2253 4666 
L 3047 4666 
L 3047 1625 
L 3713 1625 
L 3713 1100 
L 3047 1100 
L 3047 0 
L 2419 0 
L 2419 1100 
L 313 1100 
L 313 1709 
L 2253 4666 
z
" transform="scale(0.015625)"/>
      <path id="DejaVuSans-58" d="M 544 1381 
L 544 3500 
L 1119 3500 
L 1119 1403 
Q 1119 906 1312 657 
Q 1506 409 1894 409 
Q 2359 409 2629 706 
Q 2900 1003 2900 1516 
L 2900 3500 
L 3475 3500 
L 3475 0 
L 2900 0 
L 2900 538 
Q 2691 219 2414 64 
Q 2138 -91 1772 -91 
Q 1169 -91 856 284 
Q 544 659 544 1381 
z
M 1991 3584 
L 1991 3584 
z
" transform="scale(0.015625)"/>
      <path id="DejaVuSans-18" d="M 691 4666 
L 3169 4666 
L 3169 4134 
L 1269 4134 
L 1269 2991 
Q 1406 3038 1543 3061 
Q 1681 3084 1819 3084 
Q 2600 3084 3056 2656 
Q 3513 2228 3513 1497 
Q 3513 744 3044 326 
Q 2575 -91 1722 -91 
Q 1428 -91 1123 -41 
Q 819 9 494 109 
L 494 744 
Q 775 591 1075 516 
Q 1375 441 1709 441 
Q 2250 441 2565 725 
Q 2881 1009 2881 1497 
Q 2881 1984 2565 2268 
Q 2250 2553 1709 2553 
Q 1456 2553 1204 2497 
Q 953 2441 691 2322 
L 691 4666 
z
" transform="scale(0.015625)"/>
     </defs>
     <use xlink:href="#DejaVuSans-15"/>
     <use xlink:href="#DejaVuSans-1b" transform="translate(63.625 0)"/>
     <use xlink:href="#DejaVuSans-25" transform="translate(127.25 0)"/>
     <use xlink:href="#DejaVuSans-3c" transform="translate(190.390625 0)"/>
     <use xlink:href="#DejaVuSans-2d" transform="translate(251.46875 0)"/>
     <use xlink:href="#DejaVuSans-10" transform="translate(277.40625 0)"/>
     <use xlink:href="#DejaVuSans-17" transform="translate(313.484375 0)"/>
     <use xlink:href="#DejaVuSans-1b" transform="translate(377.109375 0)"/>
     <use xlink:href="#DejaVuSans-3" transform="translate(440.734375 0)"/>
     <use xlink:href="#DejaVuSans-53" transform="translate(472.515625 0)"/>
     <use xlink:href="#DejaVuSans-4f" transform="translate(536 0)"/>
     <use xlink:href="#DejaVuSans-58" transform="translate(563.78125 0)"/>
     <use xlink:href="#DejaVuSans-4a" transform="translate(627.15625 0)"/>
     <use xlink:href="#DejaVuSans-56" transform="translate(690.640625 0)"/>
     <use xlink:href="#DejaVuSans-3" transform="translate(742.734375 0)"/>
     <use xlink:href="#DejaVuSans-4c" transform="translate(774.515625 0)"/>
     <use xlink:href="#DejaVuSans-51" transform="translate(802.296875 0)"/>
     <use xlink:href="#DejaVuSans-57" transform="translate(865.671875 0)"/>
     <use xlink:href="#DejaVuSans-52" transform="translate(904.875 0)"/>
     <use xlink:href="#DejaVuSans-3" transform="translate(966.0625 0)"/>
     <use xlink:href="#DejaVuSans-57" transform="translate(997.84375 0)"/>
     <use xlink:href="#DejaVuSans-4b" transform="translate(1037.046875 0)"/>
     <use xlink:href="#DejaVuSans-48" transform="translate(1100.421875 0)"/>
     <use xlink:href="#DejaVuSans-3" transform="translate(1161.953125 0)"/>
     <use xlink:href="#DejaVuSans-18" transform="translate(1193.734375 0)"/>
     <use xlink:href="#DejaVuSans-10" transform="translate(1257.359375 0)"/>
     <use xlink:href="#DejaVuSans-53" transform="translate(1293.4375 0)"/>
     <use xlink:href="#DejaVuSans-4c" transform="translate(1356.921875 0)"/>
     <use xlink:href="#DejaVuSans-51" transform="translate(1384.703125 0)"/>
     <use xlink:href="#DejaVuSans-3" transform="translate(1448.078125 0)"/>
     <use xlink:href="#DejaVuSans-56" transform="translate(1479.859375 0)"/>
     <use xlink:href="#DejaVuSans-52" transform="translate(1531.953125 0)"/>
     <use xlink:href="#DejaVuSans-46" transform="translate(1593.140625 0)"/>
     <use xlink:href="#DejaVuSans-4e" transform="translate(1648.125 0)"/>
     <use xlink:href="#DejaVuSans-48" transform="translate(1702.46875 0)"/>
     <use xlink:href="#DejaVuSans-57" transform="translate(1764 0)"/>
    </g>
   </g>
   <g id="text_12">
    <!-- IN1 -->
    <g transform="translate(196.896609 81.461005) scale(0.08 -0.08)">
     <defs>
      <path id="DejaVuSansMono-2c" d="M 628 4666 
L 3219 4666 
L 3219 4134 
L 2241 4134 
L 2241 531 
L 3219 531 
L 3219 0 
L 628 0 
L 628 531 
L 1606 531 
L 1606 4134 
L 628 4134 
L 628 4666 
z
" transform="scale(0.015625)"/>
     </defs>
     <use xlink:href="#DejaVuSansMono-2c"/>
     <use xlink:href="#DejaVuSansMono-31" transform="translate(60.203125 0)"/>
     <use xlink:href="#DejaVuSansMono-14" transform="translate(120.40625 0)"/>
    </g>
   </g>
   <g id="text_13">
    <!-- IN2 -->
    <g transform="translate(196.896609 97.341239) scale(0.08 -0.08)">
     <defs>
      <path id="DejaVuSansMono-15" d="M 1166 531 
L 3309 531 
L 3309 0 
L 475 0 
L 475 531 
Q 1059 1147 1496 1619 
Q 1934 2091 2100 2284 
Q 2413 2666 2522 2902 
Q 2631 3138 2631 3384 
Q 2631 3775 2401 3997 
Q 2172 4219 1772 4219 
Q 1488 4219 1175 4116 
Q 863 4013 513 3803 
L 513 4441 
Q 834 4594 1145 4672 
Q 1456 4750 1759 4750 
Q 2444 4750 2861 4386 
Q 3278 4022 3278 3431 
Q 3278 3131 3139 2831 
Q 3000 2531 2688 2169 
Q 2513 1966 2180 1606 
Q 1847 1247 1166 531 
z
" transform="scale(0.015625)"/>
     </defs>
     <use xlink:href="#DejaVuSansMono-2c"/>
     <use xlink:href="#DejaVuSansMono-31" transform="translate(60.203125 0)"/>
     <use xlink:href="#DejaVuSansMono-15" transform="translate(120.40625 0)"/>
    </g>
   </g>
   <g id="text_14">
    <!-- IN3 -->
    <g transform="translate(196.896609 113.221472) scale(0.08 -0.08)">
     <defs>
      <path id="DejaVuSansMono-16" d="M 2425 2497 
Q 2884 2375 3128 2064 
Q 3372 1753 3372 1288 
Q 3372 644 2939 276 
Q 2506 -91 1741 -91 
Q 1419 -91 1084 -31 
Q 750 28 428 141 
L 428 769 
Q 747 603 1056 522 
Q 1366 441 1672 441 
Q 2191 441 2469 675 
Q 2747 909 2747 1350 
Q 2747 1756 2469 1995 
Q 2191 2234 1716 2234 
L 1234 2234 
L 1234 2753 
L 1716 2753 
Q 2150 2753 2394 2943 
Q 2638 3134 2638 3475 
Q 2638 3834 2411 4026 
Q 2184 4219 1766 4219 
Q 1488 4219 1191 4156 
Q 894 4094 569 3969 
L 569 4550 
Q 947 4650 1242 4700 
Q 1538 4750 1766 4750 
Q 2447 4750 2855 4408 
Q 3263 4066 3263 3500 
Q 3263 3116 3048 2859 
Q 2834 2603 2425 2497 
z
" transform="scale(0.015625)"/>
     </defs>
     <use xlink:href="#DejaVuSansMono-2c"/>
     <use xlink:href="#DejaVuSansMono-31" transform="translate(60.203125 0)"/>
     <use xlink:href="#DejaVuSansMono-16" transform="translate(120.40625 0)"/>
    </g>
   </g>
   <g id="text_15">
    <!-- IN4 -->
    <g transform="translate(196.896609 129.101706) scale(0.08 -0.08)">
     <defs>
      <path id="DejaVuSansMono-17" d="M 2297 4091 
L 825 1625 
L 2297 1625 
L 2297 4091 
z
M 2194 4666 
L 2925 4666 
L 2925 1625 
L 3547 1625 
L 3547 1113 
L 2925 1113 
L 2925 0 
L 2297 0 
L 2297 1113 
L 319 1113 
L 319 1709 
L 2194 4666 
z
" transform="scale(0.015625)"/>
     </defs>
     <use xlink:href="#DejaVuSansMono-2c"/>
     <use xlink:href="#DejaVuSansMono-31" transform="translate(60.203125 0)"/>
     <use xlink:href="#DejaVuSansMono-17" transform="translate(120.40625 0)"/>
    </g>
   </g>
   <g id="text_16">
    <!-- + (5-12V) -->
    <g transform="translate(196.896609 144.981939) scale(0.08 -0.08)">
     <defs>
      <path id="DejaVuSansMono-e" d="M 2188 3659 
L 2188 2272 
L 3578 2272 
L 3578 1741 
L 2188 1741 
L 2188 353 
L 1663 353 
L 1663 1741 
L 275 1741 
L 275 2272 
L 1663 2272 
L 1663 3659 
L 2188 3659 
z
" transform="scale(0.015625)"/>
      <path id="DejaVuSansMono-3" transform="scale(0.015625)"/>
      <path id="DejaVuSansMono-b" d="M 2766 4856 
Q 2350 4144 2145 3436 
Q 1941 2728 1941 2009 
Q 1941 1294 2145 584 
Q 2350 -125 2766 -844 
L 2266 -844 
Q 1794 -100 1562 604 
Q 1331 1309 1331 2009 
Q 1331 2706 1562 3412 
Q 1794 4119 2266 4856 
L 2766 4856 
z
" transform="scale(0.015625)"/>
      <path id="DejaVuSansMono-10" d="M 1113 2009 
L 2741 2009 
L 2741 1497 
L 1113 1497 
L 1113 2009 
z
" transform="scale(0.015625)"/>
      <path id="DejaVuSansMono-c" d="M 1088 4856 
L 1588 4856 
Q 2059 4119 2290 3412 
Q 2522 2706 2522 2009 
Q 2522 1306 2290 600 
Q 2059 -106 1588 -844 
L 1088 -844 
Q 1503 -119 1708 590 
Q 1913 1300 1913 2009 
Q 1913 2722 1708 3431 
Q 1503 4141 1088 4856 
z
" transform="scale(0.015625)"/>
     </defs>
     <use xlink:href="#DejaVuSansMono-e"/>
     <use xlink:href="#DejaVuSansMono-3" transform="translate(60.203125 0)"/>
     <use xlink:href="#DejaVuSansMono-b" transform="translate(120.40625 0)"/>
     <use xlink:href="#DejaVuSansMono-18" transform="translate(180.609375 0)"/>
     <use xlink:href="#DejaVuSansMono-10" transform="translate(240.8125 0)"/>
     <use xlink:href="#DejaVuSansMono-14" transform="translate(301.015625 0)"/>
     <use xlink:href="#DejaVuSansMono-15" transform="translate(361.21875 0)"/>
     <use xlink:href="#DejaVuSansMono-39" transform="translate(421.421875 0)"/>
     <use xlink:href="#DejaVuSansMono-c" transform="translate(481.625 0)"/>
    </g>
   </g>
   <g id="text_17">
    <!-- − -->
    <g transform="translate(196.896609 160.862173) scale(0.08 -0.08)">
     <defs>
      <path id="DejaVuSansMono-826" d="M 275 2272 
L 3578 2272 
L 3578 1741 
L 275 1741 
L 275 2272 
z
" transform="scale(0.015625)"/>
     </defs>
     <use xlink:href="#DejaVuSansMono-826"/>
    </g>
   </g>
  </g>
 </g>
 <defs>
  <clipPath id="p59d34b3cb0">
   <rect x="7.2" y="7.2" width="335.506026" height="216.54864"/>
  </clipPath>
 </defs>
</svg>
